#!OML:ASF H:\Terrain\Patient Classification 1\Walking\liu\liu.ASF
:FULLY-SPECIFIED
:DEGREES
194
root 12.198706 24.955050 -15.382200 10.532895 6.194355 -4.260180
lowerback -6.360539 2.510010 1.534935
upperback -2.262855 3.236250 5.018760
thorax 1.101761 1.629945 4.451445
lowerneck -20.304449 -10.271610 -23.928450
upperneck 20.333549 -13.277535 24.326099
head 11.822505 -5.635125 10.627395
rclavicle 0.000000 0.000000
rhumerus -55.654503 13.412416 -117.486145
rradius 72.739349
rwrist -40.110298
rhand -54.571800 -36.252750
rfingers 10.687531
rthumb -14.216460 -80.903099
lclavicle 0.000000 0.000000
lhumerus -73.893753 -14.945250 143.858704
lradius 46.237801
lwrist 21.159300
lhand -18.745649 -37.361099
lfingers 10.687531
lthumb 20.366850 6.944715
rfemur -15.004950 8.595855 43.327347
rtibia 36.372902
rfoot -31.584152 1.771380
rtoes -15.278999
lfemur -58.689148 8.924280 -29.713352
ltibia 67.405952
lfoot -22.205849 14.790630
ltoes -18.891150
195
root 12.207810 24.936600 -15.188850 10.490849 6.176385 -4.279935
lowerback -6.631215 2.197890 1.183648
upperback -1.283463 2.792160 5.053215
thorax 2.266755 1.396742 4.692015
lowerneck -23.948400 -10.455645 -22.458302
upperneck 21.276300 -13.290630 23.434950
head 12.672976 -5.470470 10.024651
rclavicle -0.000000 -0.000000
rhumerus -53.169746 13.461855 -117.428253
rradius 73.367401
rwrist -38.480698
rhand -52.378799 -40.219200
rfingers 10.687531
rthumb -12.100184 -84.958206
lclavicle -0.000000 -0.000000
lhumerus -72.017853 -15.013800 143.574005
lradius 45.388950
lwrist 20.580450
lhand -19.465351 -37.310101
lfingers 10.687531
lthumb 19.673250 7.041315
rfemur -13.694866 8.319571 43.477802
rtibia 35.336700
rfoot -31.096500 2.099250
rtoes -14.617650
lfemur -59.240101 8.203321 -29.690701
ltibia 64.575150
lfoot -22.047899 14.235060
ltoes -17.736450
196
root 12.212730 24.934952 -14.994150 10.410210 5.985120 -4.781955
lowerback -6.354691 2.252775 1.517460
upperback -1.649070 2.869005 5.256615
thorax 1.736505 1.440824 4.702290
lowerneck -22.846050 -10.329300 -22.508999
upperneck 20.833950 -13.158734 23.208750
head 12.295815 -5.480535 9.973500
rclavicle -0.000000 0.000000
rhumerus -53.496151 13.513021 -117.634659
rradius 73.647003
rwrist -38.414848
rhand -51.860100 -41.508148
rfingers 10.687531
rthumb -11.599545 -86.266052
lclavicle -0.000000 0.000000
lhumerus -73.105347 -15.131850 144.153748
lradius 45.093750
lwrist 19.458000
lhand -20.335350 -36.989399
lfingers 10.687531
lthumb 18.834450 7.414575
rfemur -12.431130 8.164170 44.149803
rtibia 34.373398
rfoot -30.634052 2.277420
rtoes -13.429365
lfemur -59.727600 7.725495 -29.090549
ltibia 61.724846
lfoot -21.846300 14.018940
ltoes -17.827650
197
root 12.220995 24.921001 -14.802120 10.373520 5.721330 -5.388840
lowerback -6.752325 2.351385 1.935990
upperback -0.469677 2.920230 5.404590
thorax 3.178890 1.456591 4.662720
lowerneck -26.913151 -10.858095 -21.525600
upperneck 21.716850 -13.528979 22.390049
head 13.288321 -5.494575 9.422550
rclavicle 0.000000 0.000000
rhumerus -51.425549 15.574800 -119.174400
rradius 76.778099
rwrist -46.324200
rhand -59.701050 -52.970249
rfingers 10.687531
rthumb -19.163549 -97.353905
lclavicle 0.000000 0.000000
lhumerus -70.840195 -15.477150 143.936096
lradius 44.553600
lwrist 18.915600
lhand -20.603401 -36.729301
lfingers 10.687531
lthumb 18.576000 7.690440
rfemur -11.192175 8.261040 44.904152
rtibia 33.237900
rfoot -30.358650 2.407005
rtoes -12.557955
lfemur -60.206253 7.406625 -28.339949
ltibia 58.902596
lfoot -21.746250 13.627365
ltoes -17.457750
198
root 12.238006 24.913952 -14.595961 10.296120 5.387790 -5.196810
lowerback -6.589515 2.403525 1.808100
upperback -1.324056 3.036195 5.298210
thorax 2.202720 1.521510 4.605570
lowerneck -23.881201 -10.315590 -21.922050
upperneck 21.435452 -13.084469 22.590900
head 12.606630 -5.418450 9.662399
rclavicle -0.000000 -0.000000
rhumerus -52.968601 14.362335 -118.494301
rradius 75.552147
rwrist -40.529999
rhand -53.506950 -46.879650
rfingers 10.687531
rthumb -13.188869 -91.574852
lclavicle -0.000000 -0.000000
lhumerus -72.836250 -14.723656 143.857498
lradius 44.344353
lwrist 17.809200
lhand -19.727850 -36.351601
lfingers 10.687531
lthumb 19.420200 8.015985
rfemur -9.482325 8.084745 44.666698
rtibia 31.751701
rfoot -30.171749 3.403200
rtoes -11.237370
lfemur -60.387600 7.013820 -28.454849
ltibia 56.104950
lfoot -21.895500 13.101990
ltoes -17.745150
199
root 12.249540 24.923248 -14.387745 10.309094 5.085135 -5.089800
lowerback -7.177020 2.159010 1.586325
upperback -0.262593 2.667210 5.049345
thorax 3.641790 1.324715 4.494090
lowerneck -27.422100 -10.269780 -20.395651
upperneck 22.259100 -12.950475 22.114050
head 13.401030 -5.158725 9.229485
rclavicle -0.000000 0.000000
rhumerus -50.329048 14.138491 -118.844398
rradius 74.856003
rwrist -38.439152
rhand -50.772148 -45.046799
rfingers 10.687531
rthumb -10.549455 -89.841446
lclavicle -0.000000 0.000000
lhumerus -70.785599 -14.148645 142.531509
lradius 43.744202
lwrist 17.124599
lhand -18.963600 -35.958900
lfingers 10.687531
lthumb 20.156849 8.360970
rfemur -7.820100 8.194725 44.532600
rtibia 30.277050
rfoot -30.047249 4.049880
rtoes -9.255465
lfemur -60.699150 6.597660 -28.450798
ltibia 53.286449
lfoot -22.155300 12.903811
ltoes -19.781250
200
root 12.263670 24.929850 -14.185486 10.379775 4.770555 -5.442825
lowerback -7.285125 2.519535 2.157885
upperback -0.816736 3.132540 5.090715
thorax 3.130065 1.566390 4.236900
lowerneck -25.383001 -10.354771 -21.606300
upperneck 21.990150 -13.113855 22.756800
head 13.061520 -5.333205 9.660390
rclavicle -0.000000 -0.000000
rhumerus -51.989101 13.898535 -118.828049
rradius 75.604050
rwrist -38.533203
rhand -50.799900 -45.703651
rfingers 10.687531
rthumb -10.576185 -90.497551
lclavicle -0.000000 -0.000000
lhumerus -72.249603 -15.324600 143.747101
lradius 43.323448
lwrist 17.620499
lhand -19.042950 -35.849998
lfingers 10.687531
lthumb 20.080349 8.474850
rfemur -6.491730 8.138265 44.912399
rtibia 28.775249
rfoot -29.682301 4.307370
rtoes -10.108125
lfemur -61.110752 6.172815 -27.872849
ltibia 50.397453
lfoot -22.257900 12.844891
ltoes -21.112801
201
root 12.284235 24.920099 -13.971855 10.354216 4.471050 -5.523630
lowerback -7.440900 2.606565 2.263350
upperback -1.071769 3.246165 5.115270
thorax 2.953245 1.625085 4.209930
lowerneck -24.102451 -10.286386 -21.926701
upperneck 21.632549 -13.056660 22.698750
head 12.713370 -5.386050 9.708600
rclavicle 0.000000 0.000000
rhumerus -52.926003 14.232300 -119.161354
rradius 76.272598
rwrist -38.870850
rhand -51.022804 -45.998398
rfingers 10.687531
rthumb -10.791360 -90.785095
lclavicle 0.000000 0.000000
lhumerus -73.336952 -15.858150 144.579742
lradius 43.080902
lwrist 17.842201
lhand -19.491001 -36.127350
lfingers 10.687531
lthumb 19.648500 8.225519
rfemur -4.892895 7.693770 44.954552
rtibia 27.061501
rfoot -29.098200 4.772400
rtoes -12.404580
lfemur -61.292397 5.249370 -27.340351
ltibia 47.703751
lfoot -22.226400 12.918540
ltoes -20.509050
202
root 12.305565 24.905399 -13.759470 10.431690 4.305270 -5.562690
lowerback -7.585935 2.535705 2.204205
upperback -1.229911 3.154575 5.156010
thorax 2.871225 1.579560 4.280865
lowerneck -23.432701 -10.108049 -21.688049
upperneck 21.241199 -12.829545 22.285351
head 12.392790 -5.331945 9.550650
rclavicle 0.000000 0.000000
rhumerus -53.096848 14.746920 -119.707947
rradius 76.627953
rwrist -39.147301
rhand -50.606701 -46.320900
rfingers 10.687531
rthumb -10.389689 -91.120949
lclavicle 0.000000 0.000000
lhumerus -73.929146 -15.194399 144.382813
lradius 42.873150
lwrist 16.487701
lhand -19.353451 -36.435600
lfingers 10.687531
lthumb 19.781099 7.908735
rfemur -3.194400 7.637535 44.980049
rtibia 25.180649
rfoot -28.590000 4.948470
rtoes -12.269279
lfemur -61.637100 4.055700 -26.726250
ltibia 45.271652
lfoot -22.469551 13.668390
ltoes -20.652901
203
root 12.323670 24.880949 -13.556700 10.544895 4.133115 -6.004050
lowerback -7.708560 2.398470 2.550285
upperback -1.297333 2.948655 5.229480
thorax 2.887305 1.478618 4.151970
lowerneck -23.869650 -9.834255 -21.278099
upperneck 21.704250 -12.525600 22.217701
head 12.553050 -5.150625 9.506715
rclavicle 0.000000 -0.000000
rhumerus -52.992451 15.666450 -120.480301
rradius 76.869598
rwrist -39.586651
rhand -50.253304 -45.897598
rfingers 10.687531
rthumb -10.048530 -90.708748
lclavicle 0.000000 -0.000000
lhumerus -74.008194 -14.657446 143.932495
lradius 42.317249
lwrist 15.833700
lhand -18.445200 -36.378300
lfingers 10.687531
lthumb 20.656349 7.908135
rfemur -1.626390 7.987440 45.492149
rtibia 23.437050
rfoot -28.471050 5.013195
rtoes -12.282615
lfemur -62.189247 3.226545 -25.746901
ltibia 42.976051
lfoot -22.771200 14.808344
ltoes -23.920200
204
root 12.334455 24.856651 -13.342441 10.556234 3.733800 -6.454590
lowerback -7.900170 2.398170 2.929695
upperback -1.277964 2.917440 5.245980
thorax 3.027570 1.464900 3.961215
lowerneck -24.344851 -9.664170 -21.152248
upperneck 22.275749 -12.372736 22.477800
head 12.811590 -5.025075 9.611520
rclavicle 0.000000 -0.000000
rhumerus -53.250900 16.494299 -121.192352
rradius 77.240402
rwrist -40.064701
rhand -50.242500 -45.401100
rfingers 10.687531
rthumb -10.038105 -90.212402
lclavicle 0.000000 -0.000000
lhumerus -74.370148 -15.016800 144.078888
lradius 41.938351
lwrist 15.843300
lhand -18.696600 -36.454350
lfingers 10.687531
lthumb 20.414101 7.848345
rfemur 0.130800 8.065635 45.951599
rtibia 21.653400
rfoot -28.268101 5.537595
rtoes -12.237780
lfemur -62.491051 2.736645 -24.801300
ltibia 40.721550
lfoot -22.509150 15.392100
ltoes -24.451801
205
root 12.353609 24.843899 -13.123710 10.722945 3.096720 -6.516750
lowerback -8.408040 2.720115 3.057765
upperback -1.156621 3.313335 5.169570
thorax 3.432240 1.663020 3.860445
lowerneck -24.438749 -9.825225 -21.512850
upperneck 22.291349 -12.542685 22.697550
head 12.889065 -5.102550 9.727650
rclavicle -0.000000 -0.000000
rhumerus -53.618698 16.625250 -121.391541
rradius 77.924850
rwrist -40.428448
rhand -50.206047 -45.253201
rfingers 10.687531
rthumb -10.002960 -90.065704
lclavicle -0.000000 -0.000000
lhumerus -74.547752 -15.073950 144.046799
lradius 41.779800
lwrist 14.450535
lhand -19.101000 -36.447899
lfingers 10.687531
lthumb 20.024399 7.880565
rfemur 1.795560 7.578675 45.829350
rtibia 19.773600
rfoot -27.715050 6.469620
rtoes -11.412180
lfemur -62.858849 2.450595 -24.345299
ltibia 38.601601
lfoot -22.158751 15.738901
ltoes -22.959450
206
root 12.381434 24.849148 -12.907440 11.091630 2.538885 -6.642645
lowerback -9.160786 3.030765 3.293850
upperback -1.019261 3.673125 5.139135
thorax 3.995820 1.844010 3.759945
lowerneck -24.627750 -10.013265 -21.711151
upperneck 22.216801 -12.699406 22.582199
head 12.927074 -5.190870 9.692070
rclavicle 0.000000 0.000000
rhumerus -53.568451 16.637100 -121.516045
rradius 78.413551
rwrist -40.590450
rhand -49.793396 -43.573799
rfingers 10.687531
rthumb -9.604500 -88.398750
lclavicle 0.000000 0.000000
lhumerus -74.298447 -15.274799 144.095245
lradius 41.388901
lwrist 13.757370
lhand -18.218100 -35.963100
lfingers 10.687531
lthumb 20.875349 8.308350
rfemur 3.335895 7.252380 45.770248
rtibia 17.720551
rfoot -26.912102 6.886815
rtoes -13.885050
lfemur -63.457047 1.709940 -23.604000
ltibia 36.576752
lfoot -22.397100 17.205450
ltoes -25.469700
207
root 12.409515 24.838051 -12.683985 11.283689 2.106210 -7.086000
lowerback -9.639705 3.161235 3.813030
upperback -1.031244 3.786975 5.171805
thorax 4.269405 1.905735 3.533985
lowerneck -24.303448 -9.936480 -21.641550
upperneck 22.043251 -12.620714 22.521000
head 12.791281 -5.169870 9.668460
rclavicle 0.000000 0.000000
rhumerus -53.680950 16.855200 -121.999054
rradius 78.475952
rwrist -40.535553
rhand -49.405502 -42.017548
rfingers 10.687531
rthumb -9.230055 -86.853455
lclavicle 0.000000 0.000000
lhumerus -74.532898 -15.660299 144.284698
lradius 41.157600
lwrist 14.124540
lhand -17.828100 -35.974949
lfingers 10.687531
lthumb 21.251101 8.270355
rfemur 5.164005 7.238175 46.042801
rtibia 15.433351
rfoot -25.907700 7.434495
rtoes -13.516171
lfemur -63.888748 0.571884 -22.260448
ltibia 34.805252
lfoot -22.657200 18.771599
ltoes -28.651651
